<?xml version="1.0" standalone="no"?>
<!DOCTYPE svg PUBLIC "-//W3C//DTD SVG 20010904//EN"
 "http://www.w3.org/TR/2001/REC-SVG-20010904/DTD/svg10.dtd">
<svg version="1.0" xmlns="http://www.w3.org/2000/svg"
 width="700.000000pt" height="700.000000pt" viewBox="0 0 700.000000 700.000000"
 preserveAspectRatio="xMidYMid meet">
<metadata>
Created by potrace 1.11, written by Peter Selinger 2001-2013
</metadata>
<g transform="translate(0.000000,700.000000) scale(0.100000,-0.100000)"
fill="#000000" stroke="none">
<path d="M4890 6245 c-107 -29 -190 -98 -236 -200 -22 -46 -28 -75 -28 -132 0
-40 -5 -74 -11 -77 -105 -41 -778 -312 -800 -321 -33 -14 -494 -199 -915 -366
-151 -60 -286 -116 -300 -123 -23 -14 -27 -12 -85 48 -127 130 -305 173 -476
116 -256 -86 -372 -370 -249 -609 12 -25 47 -69 77 -99 30 -30 52 -60 49 -67
-2 -7 -60 -104 -129 -216 -113 -186 -229 -376 -465 -764 -47 -77 -95 -156
-107 -175 -12 -19 -65 -105 -116 -190 -51 -85 -103 -169 -114 -186 l-21 -31
-39 17 c-270 114 -590 -4 -715 -265 -100 -207 -62 -433 100 -595 160 -160 388
-208 608 -126 95 35 211 131 260 217 l27 46 275 -114 c151 -63 286 -118 300
-122 14 -5 45 -17 70 -28 25 -12 131 -56 235 -98 273 -112 1481 -610 1537
-633 l46 -21 -9 -41 c-13 -55 -3 -135 24 -190 24 -51 92 -122 140 -147 175
-90 398 -9 466 171 26 69 23 175 -7 232 l-21 41 22 19 c21 18 270 212 632 492
88 67 168 130 178 138 21 17 22 17 39 1 26 -25 108 -78 150 -96 134 -57 313
-45 442 28 225 129 309 415 187 636 -39 70 -122 153 -192 189 l-56 30 28 80
c15 45 55 160 89 256 34 96 70 200 80 230 10 30 42 120 70 200 28 80 59 167
67 193 l16 48 56 -8 c215 -28 389 26 532 167 288 285 205 749 -165 924 -159
75 -377 72 -535 -8 l-46 -24 -328 469 -328 469 42 43 c67 67 94 135 94 237 0
71 -4 94 -26 140 -41 87 -109 149 -199 185 -56 21 -160 26 -220 10z m-190
-549 c0 -3 -75 -67 -167 -143 -93 -76 -177 -145 -188 -155 -72 -59 -467 -386
-500 -412 -22 -18 -99 -82 -171 -142 -234 -194 -278 -229 -289 -228 -13 0
-125 15 -145 19 -19 4 -164 25 -275 41 -27 3 -57 7 -65 9 -8 1 -42 5 -75 10
-33 4 -67 9 -75 10 -8 2 -38 6 -65 10 l-51 7 1 76 0 76 465 187 c256 103 476
191 490 197 14 6 133 54 265 107 132 52 249 100 260 105 35 16 570 229 578
229 4 1 7 -1 7 -3z m69 -63 c20 -14 37 -27 39 -29 2 -1 -8 -21 -21 -45 -13
-24 -40 -73 -59 -109 -20 -36 -49 -90 -65 -120 -53 -97 -102 -188 -139 -257
-20 -38 -48 -88 -62 -113 -13 -25 -47 -88 -75 -140 -27 -52 -66 -124 -86 -160
-20 -36 -48 -87 -61 -113 l-25 -48 -65 6 c-36 4 -74 9 -85 11 -11 2 -40 7 -65
10 -54 7 -97 13 -130 19 -14 2 -41 6 -60 9 -19 3 -102 15 -185 27 -82 12 -156
22 -163 22 -13 0 -3 10 79 77 41 33 365 301 458 378 24 21 72 60 106 87 34 28
90 74 126 104 35 29 82 68 104 86 91 75 231 191 241 200 6 5 27 23 47 38 19
15 50 41 68 57 19 16 36 30 38 30 2 0 20 -12 40 -27z m537 -205 c70 -101 146
-210 168 -243 23 -33 43 -62 46 -65 3 -3 74 -103 157 -222 l152 -218 -77 -77
c-80 -81 -129 -163 -152 -256 -7 -26 -17 -47 -24 -47 -18 1 -176 22 -271 37
-22 3 -51 7 -63 9 -29 3 -33 6 -36 36 -10 73 -18 136 -21 158 -4 25 -8 54 -21
160 -3 30 -8 64 -10 75 -2 11 -6 39 -9 62 -3 24 -10 75 -15 115 -6 40 -13 93
-16 118 -2 25 -9 79 -15 120 -6 41 -12 89 -14 105 -20 147 -27 205 -31 236 -4
36 -4 36 53 57 32 11 61 21 65 21 3 1 64 -81 134 -181z m-441 150 c4 -10 -58
-328 -110 -569 -2 -9 -6 -33 -9 -53 -3 -19 -11 -57 -17 -83 -16 -70 -15 -65
-49 -233 -18 -85 -34 -162 -35 -170 -2 -8 -4 -21 -4 -28 -1 -8 -8 -11 -18 -8
-10 3 -38 8 -63 11 -25 3 -56 8 -70 10 -14 3 -45 7 -70 10 -25 3 -56 7 -70 10
-14 2 -43 7 -64 10 -22 3 -41 7 -42 8 -1 1 19 41 45 88 27 47 71 129 100 182
28 54 62 116 75 139 13 24 39 72 58 108 143 264 246 455 277 512 34 65 56 83
66 56z m155 -34 c4 -10 10 -46 14 -79 3 -33 8 -69 10 -80 2 -11 7 -47 10 -80
4 -33 9 -67 11 -75 2 -8 7 -42 11 -75 3 -33 8 -69 9 -80 2 -11 6 -42 9 -70 4
-27 8 -61 11 -75 2 -14 6 -47 10 -75 3 -27 8 -63 10 -80 3 -16 9 -68 15 -115
6 -47 13 -96 15 -110 2 -14 7 -47 10 -75 3 -27 8 -66 11 -86 l5 -35 -188 28
c-103 15 -201 29 -217 30 -15 1 -30 8 -33 14 -2 7 3 47 12 90 9 44 19 90 21
104 3 14 23 111 45 215 22 105 42 204 45 220 2 17 7 37 9 45 2 8 7 29 9 45 3
17 19 98 37 180 17 83 32 159 35 170 13 68 15 72 36 70 12 -1 24 -10 28 -21z
m-2261 -868 c3 -2 33 -6 66 -10 33 -3 71 -8 85 -11 14 -3 40 -7 59 -10 62 -8
106 -15 216 -31 61 -9 122 -17 138 -19 15 -1 30 -4 32 -7 4 -4 -169 -149 -389
-328 -10 -8 -24 -21 -32 -28 -12 -11 -23 -6 -67 30 -30 24 -69 55 -88 69 -19
15 -72 57 -119 94 -47 37 -92 70 -100 75 -12 7 -8 21 23 83 20 40 37 82 37 92
0 16 7 17 66 11 37 -4 69 -8 73 -10z m746 -107 c39 -6 82 -12 96 -14 51 -7
455 -65 494 -71 22 -3 47 -8 55 -9 8 -2 23 -4 32 -4 15 -1 12 -10 -17 -60 -19
-32 -39 -69 -45 -82 -5 -13 -14 -31 -20 -39 -5 -8 -37 -67 -71 -130 -34 -63
-74 -137 -89 -165 -15 -27 -60 -111 -100 -185 -100 -186 -114 -210 -123 -210
-4 0 -64 45 -135 101 -70 55 -140 111 -157 124 -16 12 -89 70 -162 127 -185
145 -284 222 -297 230 -13 9 11 33 129 128 44 36 82 67 85 70 16 18 243 200
249 200 3 0 38 -5 76 -11z m-804 -229 c154 -122 177 -143 167 -158 -6 -9 -47
-46 -91 -81 l-79 -64 -24 29 c-13 16 -23 34 -24 41 0 6 -3 13 -7 15 -10 4
-206 299 -201 302 2 1 18 14 36 29 19 15 36 27 39 27 2 0 85 -63 184 -140z
m1694 100 c28 -5 68 -11 90 -14 152 -18 146 -17 141 -45 -56 -282 -148 -717
-154 -722 -5 -5 -505 -172 -577 -194 -6 -1 -42 23 -81 54 l-70 56 73 133 c40
73 93 172 119 220 26 48 72 134 104 192 31 58 78 143 103 190 89 169 73 152
142 145 33 -3 83 -10 110 -15z m-1861 -236 l129 -196 -29 -24 c-16 -13 -31
-23 -34 -24 -3 0 -20 33 -39 73 -19 39 -65 135 -103 213 -37 77 -68 143 -68
147 0 24 29 -15 144 -189z m-481 165 c52 -18 77 -20 157 -15 52 3 107 8 123
12 16 4 27 2 27 -4 0 -6 45 -104 100 -217 55 -114 100 -210 100 -214 0 -7 -59
-58 -300 -254 -52 -43 -104 -86 -115 -95 -11 -10 -45 -38 -75 -62 -30 -25 -57
-47 -60 -50 -4 -5 -786 -650 -815 -672 -5 -5 -23 -19 -38 -33 -15 -14 -31 -25
-35 -25 -4 1 -27 18 -51 39 l-43 38 293 482 c162 265 332 544 379 621 47 77
123 202 169 277 46 76 91 150 100 165 9 16 17 28 19 28 1 0 31 -9 65 -21z
m2782 7 c11 -2 47 -7 80 -12 33 -4 62 -8 65 -9 3 0 32 -5 65 -9 108 -14 130
-18 137 -24 4 -4 10 -36 14 -72 4 -36 8 -72 9 -80 2 -14 12 -93 20 -150 2 -14
6 -43 10 -65 l6 -40 -312 -105 c-171 -58 -317 -106 -325 -108 -16 -4 -13 25
11 133 8 33 17 75 20 93 3 18 24 120 46 225 22 106 42 201 44 212 2 11 4 21 4
23 1 3 70 -5 106 -12z m525 -76 c30 -5 78 -11 105 -14 28 -4 59 -8 70 -10 11
-3 27 -5 35 -5 12 -1 15 -16 15 -73 0 -40 4 -94 8 -119 7 -43 6 -47 -15 -52
-13 -3 -83 -26 -156 -51 -144 -50 -159 -53 -159 -33 0 14 -21 172 -27 202 -2
11 -7 51 -11 90 -4 38 -9 74 -12 78 -5 9 40 5 147 -13z m-2392 -170 c20 -16
76 -60 123 -97 47 -38 103 -81 124 -98 79 -62 423 -331 453 -353 35 -27 36
-22 -26 -137 l-43 -81 -185 -63 c-102 -35 -188 -60 -192 -56 -4 4 -118 174
-254 378 l-247 372 32 30 c67 63 158 134 170 135 5 0 25 -13 45 -30z m2652
-139 c0 -5 -22 -18 -49 -29 -26 -12 -77 -35 -112 -51 -168 -77 -177 -80 -184
-63 -3 8 0 21 7 28 7 7 85 37 173 68 88 30 161 55 163 55 1 1 2 -3 2 -8z
m-2789 -236 c74 -110 136 -204 139 -210 3 -5 51 -79 108 -162 56 -84 102 -155
102 -157 0 -4 -184 -66 -195 -66 -2 0 -17 28 -33 63 -17 34 -69 143 -117 242
-48 99 -116 241 -152 315 l-65 135 33 27 c18 16 36 25 40 20 4 -4 67 -97 140
-207z m2854 123 c30 -46 62 -80 112 -119 l32 -26 -57 -84 c-32 -46 -83 -120
-113 -164 -103 -147 -180 -259 -226 -327 -25 -38 -49 -68 -52 -68 -4 0 -7 10
-7 23 -1 12 -4 38 -7 57 -3 19 -15 109 -27 200 -11 91 -23 176 -25 190 -17
108 -25 194 -18 200 4 4 53 26 108 50 55 24 134 59 175 77 41 18 76 33 76 33
1 0 14 -19 29 -42z m-2950 -303 c29 -60 87 -182 129 -269 42 -87 75 -161 72
-163 -3 -4 -1379 -468 -1615 -546 -59 -19 -96 -27 -98 -20 -2 6 -19 37 -39 68
-28 48 -32 60 -20 69 8 6 60 49 116 96 56 47 175 145 264 218 153 127 181 150
286 237 25 20 65 54 90 75 48 40 161 134 226 187 21 17 129 106 238 196 l200
164 49 -101 c27 -55 73 -150 102 -211z m2515 268 c0 -27 -12 -33 -273 -148
-149 -65 -305 -134 -346 -153 -40 -18 -75 -31 -77 -29 -5 5 17 120 26 130 6 7
646 226 663 227 4 0 7 -12 7 -27z m16 -129 c1 -10 4 -41 8 -69 4 -27 9 -63 11
-80 2 -16 6 -46 9 -65 3 -19 8 -57 11 -85 4 -27 8 -61 11 -75 2 -14 7 -52 10
-85 4 -33 8 -62 10 -66 1 -3 6 -37 9 -76 l7 -71 -148 -214 c-81 -117 -155
-223 -164 -235 l-17 -21 -64 49 c-35 27 -71 55 -79 62 -8 7 -44 35 -80 62 -35
28 -73 57 -85 67 -11 9 -75 60 -143 113 -110 87 -122 100 -118 124 2 14 19 94
36 176 18 83 34 159 36 169 2 11 7 23 11 26 5 4 123 58 263 120 224 99 326
145 420 187 32 15 45 11 46 -13z m658 -34 c25 -12 46 -25 46 -29 0 -7 -65
-196 -153 -446 -18 -50 -68 -195 -112 -323 l-80 -233 -30 6 c-16 3 -60 9 -97
12 l-66 6 -7 56 c-3 31 -8 68 -11 82 -2 14 -6 41 -8 60 -3 19 -7 55 -11 80 -6
45 -6 46 111 215 158 227 223 321 302 436 37 54 68 98 68 98 1 0 22 -9 48 -20z
m-1459 -87 c-3 -10 -9 -36 -12 -58 -9 -67 -23 -85 -93 -115 -36 -15 -111 -48
-167 -73 l-102 -45 -81 64 c-45 35 -80 64 -78 64 1 0 120 41 263 90 143 48
264 89 269 89 4 1 5 -7 1 -16z m-679 -105 l54 -42 -96 -34 c-53 -18 -98 -32
-99 -30 -5 4 75 148 82 148 2 0 29 -19 59 -42z m171 -134 c40 -31 76 -60 79
-65 3 -5 -25 -23 -63 -40 -37 -17 -86 -39 -108 -49 -22 -10 -62 -28 -90 -39
-27 -12 -68 -30 -89 -39 l-39 -18 -51 51 -51 50 29 55 c16 30 30 56 31 58 3 4
258 91 269 91 5 1 43 -24 83 -55z m459 -1 c-3 -10 -8 -33 -11 -51 -8 -47 -35
-174 -41 -194 -4 -15 -24 -3 -105 63 -55 45 -99 83 -97 84 3 4 250 113 256
114 2 1 1 -7 -2 -16z m-867 -80 c-30 -54 -31 -55 -82 -39 -25 7 -48 11 -51 8
-4 -3 -6 -1 -6 5 0 8 115 53 157 63 2 0 -7 -17 -18 -37z m620 -85 c31 -24 61
-48 67 -53 6 -6 34 -28 62 -50 56 -42 56 -41 42 -100 -5 -22 -11 -51 -13 -65
-19 -101 -51 -246 -57 -253 -7 -8 -17 -4 -479 167 l-114 42 -1 82 -1 82 210
94 c116 52 214 94 219 95 5 1 34 -18 65 -41z m-1009 -40 c-17 -18 -38 -44 -45
-58 -13 -26 -31 -98 -27 -112 1 -5 -2 -8 -6 -8 -4 0 -24 33 -44 74 l-36 73 91
31 c51 17 94 31 96 32 2 0 -11 -15 -29 -32z m-149 -145 c51 -108 52 -105 -24
-119 -18 -3 -112 -23 -210 -45 -98 -21 -193 -41 -210 -44 -18 -3 -58 -12 -90
-20 -32 -8 -73 -17 -90 -21 -18 -3 -70 -14 -117 -24 -47 -10 -96 -21 -110 -24
-14 -2 -68 -14 -120 -26 -52 -12 -106 -23 -120 -26 -24 -5 -295 -64 -485 -105
-145 -32 -188 -39 -193 -34 -3 3 -3 7 -1 9 2 2 283 98 624 212 341 114 721
242 845 285 124 42 232 77 240 78 10 1 31 -34 61 -96z m1727 -262 l261 -204
-17 -29 c-9 -16 -28 -42 -42 -58 l-25 -29 -90 34 c-49 18 -172 64 -273 101
l-183 67 5 31 c6 43 56 288 61 304 6 17 -18 33 303 -217z m657 -12 l7 -67 -40
-7 c-56 -9 -148 -55 -211 -105 -45 -36 -55 -40 -67 -28 -14 14 -14 15 165 273
35 50 75 108 89 129 l27 40 12 -85 c6 -46 14 -114 18 -150z m-2266 29 c27 -57
88 -183 135 -282 47 -98 86 -180 86 -183 0 -2 -66 -2 -147 2 -82 3 -200 8
-263 10 -63 3 -169 7 -235 10 -66 3 -190 7 -275 10 -85 3 -195 7 -245 10 -49
2 -157 7 -240 10 -82 3 -202 8 -265 10 -63 3 -182 7 -264 10 -83 3 -151 6
-152 8 -1 1 -4 22 -5 47 l-4 45 70 17 c59 14 275 61 340 74 46 10 67 14 200
43 277 60 330 71 350 75 24 5 462 100 555 121 36 8 76 17 90 19 14 3 63 14
110 25 47 10 91 20 98 20 7 1 34 -45 61 -101z m657 18 c66 -24 196 -72 289
-107 94 -34 173 -65 178 -69 4 -3 1 -38 -7 -76 -8 -39 -17 -81 -19 -94 -20
-103 -32 -156 -38 -164 -7 -8 -105 -8 -254 -1 -70 4 -419 17 -485 19 -51 2
-28 -34 -182 281 l-83 171 55 -31 c49 -27 64 -30 140 -30 68 0 94 4 131 23 46
22 129 95 129 113 0 16 25 10 146 -35z m627 -230 c18 -7 70 -27 117 -44 47
-17 135 -49 195 -71 61 -23 115 -41 121 -41 7 0 17 -6 23 -14 9 -11 2 -28 -34
-79 l-45 -65 -123 4 c-67 3 -151 7 -187 9 -36 2 -93 4 -128 4 -55 1 -63 3 -59
19 3 9 18 79 33 155 29 147 30 148 87 123z m640 -112 c-15 -27 -32 -44 -43
-44 -31 0 -30 14 2 63 25 39 32 44 47 35 17 -10 16 -14 -6 -54z m-78 -94 c23
-9 26 -14 20 -41 -4 -17 -8 -37 -9 -43 -4 -29 -17 -34 -69 -29 -28 3 -53 6
-54 7 -3 3 78 116 82 116 2 0 16 -5 30 -10z m-3350 -25 c94 -4 199 -8 235 -10
36 -2 144 -6 240 -10 96 -3 213 -8 260 -10 47 -2 164 -6 260 -10 96 -4 209 -8
250 -10 41 -2 158 -6 260 -11 102 -4 199 -7 217 -8 28 -1 34 -6 54 -51 12 -27
67 -142 122 -255 105 -216 218 -452 269 -559 30 -62 30 -65 12 -78 -33 -24
-85 -75 -101 -100 -8 -12 -20 -23 -26 -23 -6 0 -135 51 -286 114 -152 63 -328
135 -391 161 -63 25 -134 55 -157 65 -24 11 -45 20 -48 20 -2 0 -84 33 -182
74 -98 40 -416 171 -708 291 -291 119 -554 228 -583 241 -29 13 -58 24 -65 24
-28 0 -34 20 -21 63 8 23 16 54 19 69 l5 27 98 -4 c53 -2 174 -7 267 -10z
m2290 -91 c77 -3 166 -7 197 -8 31 -1 59 -4 62 -7 5 -5 -32 -192 -98 -504 -8
-38 -17 -83 -20 -100 -2 -16 -15 -80 -28 -141 l-23 -112 -55 -5 c-30 -3 -62
-8 -70 -11 -12 -5 -29 21 -72 111 -173 359 -233 483 -302 626 -42 87 -76 161
-76 164 0 5 138 1 485 -13z m734 -29 c58 -3 105 -6 107 -8 1 -1 -101 -150
-227 -332 -126 -181 -254 -366 -284 -410 -90 -132 -98 -140 -123 -126 -14 8
-20 18 -17 34 5 23 21 103 31 147 4 22 27 136 39 195 3 11 27 129 55 263 27
133 50 245 50 248 0 4 86 2 369 -11z m329 -19 c3 -4 7 -24 9 -45 3 -45 37
-142 68 -191 l22 -36 -129 -99 c-71 -55 -182 -141 -246 -191 -387 -300 -471
-364 -480 -364 -5 0 -13 7 -16 16 -6 16 2 29 253 389 69 99 173 250 232 335
59 85 114 165 123 177 14 19 24 21 86 18 39 -1 74 -6 78 -9z"/>
</g>
</svg>
